<svg id="Layer_1" data-name="Layer 1" xmlns="http://www.w3.org/2000/svg" xmlns:xlink="http://www.w3.org/1999/xlink" viewBox="0 0 289.78 87.4"><defs><style>.cls-1{fill:#165c7d;}.cls-2{fill:url(#linear-gradient);}.cls-3{fill:url(#linear-gradient-2);}.cls-4{fill:#886b25;}.cls-5{fill:url(#linear-gradient-3);}.cls-6{fill:#007d8a;}.cls-7{fill:#007041;}</style><linearGradient id="linear-gradient" x1="40.7" y1="81.32" x2="96.73" y2="81.32" gradientUnits="userSpaceOnUse"><stop offset="0" stop-color="#00a9ce"/><stop offset="0.41" stop-color="#00a7cb"/><stop offset="0.66" stop-color="#009fc3"/><stop offset="0.86" stop-color="#0091b5"/><stop offset="1" stop-color="#0083a6"/></linearGradient><linearGradient id="linear-gradient-2" x1="49.1" y1="41.85" x2="98.99" y2="41.85" gradientUnits="userSpaceOnUse"><stop offset="0" stop-color="#ffa300"/><stop offset="0.35" stop-color="#fca200"/><stop offset="0.56" stop-color="#f49d00"/><stop offset="0.73" stop-color="#e69600"/><stop offset="0.89" stop-color="#d28b00"/><stop offset="1" stop-color="#bd8000"/></linearGradient><linearGradient id="linear-gradient-3" x1="20.06" y1="56.51" x2="49.1" y2="56.51" gradientUnits="userSpaceOnUse"><stop offset="0" stop-color="#00b140"/><stop offset="0.39" stop-color="#00ae40"/><stop offset="0.62" stop-color="#01a63e"/><stop offset="0.82" stop-color="#02983b"/><stop offset="0.99" stop-color="#038437"/><stop offset="1" stop-color="#038237"/></linearGradient></defs><path class="cls-1" d="M79.08,64.26,71.46,45.59c-.75-1.72-1.31-3-2.45-3s-1.71,1.31-2.4,2.95L62,56.36,57.4,45.59c-.7-1.65-1.25-3-2.41-3s-1.7,1.24-2.46,3L44.92,64.28a3.58,3.58,0,0,0,3.53,5.16H51.8l0,4.25a2.77,2.77,0,0,0,2.76,2.77h1a2.77,2.77,0,0,0,2.77-2.77V71.61a1.62,1.62,0,0,0,0-.22v-2h7.4v2a1.62,1.62,0,0,0,0,.22v2.08a2.77,2.77,0,0,0,2.77,2.77h1a2.77,2.77,0,0,0,2.77-2.77V69.44h3.36a3.59,3.59,0,0,0,3.52-5.18ZM58.77,67.38H56.24v6.31a.7.7,0,0,1-.7.7h-1a.7.7,0,0,1-.7-.7V67.38H48.45a1.83,1.83,0,0,1-1.57-.66,1.78,1.78,0,0,1,0-1.68l7.6-18.62c.1-.24.32-.75.54-1.18.14.29.31.68.51,1.16L60.85,59,58.8,64.27A4,4,0,0,0,58.77,67.38Zm4.5-.7a1.53,1.53,0,0,1-2.53,0,1.82,1.82,0,0,1,0-1.65L62,61.8,63.28,65A1.85,1.85,0,0,1,63.27,66.68Zm13.85,0a1.81,1.81,0,0,1-1.56.66H70.14l0,6.31a.7.7,0,0,1-.7.7h-1a.7.7,0,0,1-.7-.7V67.38H65.23a4,4,0,0,0,0-3.11L63.09,59l5.43-12.61c.19-.47.37-.86.51-1.15.21.43.43.93.53,1.16L77.16,65A1.77,1.77,0,0,1,77.12,66.72Z" transform="translate(-20.06 -20.06)"/><path class="cls-2" d="M83.17,78.48A28.85,28.85,0,0,1,62,87.71c-.89,0-1.76,0-2.63-.12a31.36,31.36,0,0,1-18.66-.8A31.25,31.25,0,0,0,96.46,63.64,31.35,31.35,0,0,1,83.17,78.48Z" transform="translate(-20.06 -20.06)"/><path class="cls-3" d="M66.86,30.28A29,29,0,0,1,88,46.05a31.14,31.14,0,0,1,8.5,17.59A31.25,31.25,0,0,0,49.1,26.23c.73-.05,1.47-.08,2.21-.08A31.13,31.13,0,0,1,66.86,30.28Z" transform="translate(-20.06 -20.06)"/><path class="cls-4" d="M90.91,58.79a28.81,28.81,0,0,1-7.74,19.69A31.35,31.35,0,0,0,96.46,63.64,31.14,31.14,0,0,0,88,46.05,28.79,28.79,0,0,1,90.91,58.79Z" transform="translate(-20.06 -20.06)"/><path class="cls-5" d="M34.24,67A28.93,28.93,0,0,1,37.5,43.39,31.24,31.24,0,0,1,49.1,26.23a31.25,31.25,0,0,0-8.4,60.56,31.08,31.08,0,0,1-6.47-19C34.23,67.49,34.23,67.23,34.24,67Z" transform="translate(-20.06 -20.06)"/><path class="cls-6" d="M59.36,87.59A29,29,0,0,1,34.24,67c0,.26,0,.52,0,.78a31.08,31.08,0,0,0,6.47,19,31.36,31.36,0,0,0,18.66.8Z" transform="translate(-20.06 -20.06)"/><path class="cls-7" d="M37.5,43.39A29,29,0,0,1,66.86,30.28a31.13,31.13,0,0,0-15.55-4.13c-.74,0-1.48,0-2.21.08A31.24,31.24,0,0,0,37.5,43.39Z" transform="translate(-20.06 -20.06)"/><path class="cls-1" d="M133.53,79.11a40.83,40.83,0,0,1-10.31,1.19c-13.09,0-16.33-6.13-16.33-20.12s3.25-20.12,16.33-20.12a40.72,40.72,0,0,1,10.31,1.2l-.71,6.17a50.74,50.74,0,0,0-8.12-.67c-9.48,0-9.65,5.67-9.65,13.42s.14,13.42,9.65,13.42a50.38,50.38,0,0,0,8.1-.68Z" transform="translate(-20.06 -20.06)"/><path class="cls-1" d="M139.14,40.46h8V79.89h-8Z" transform="translate(-20.06 -20.06)"/><path class="cls-1" d="M175.12,75c-1.23,3.8-3.19,5.33-6.07,5.33S164.24,78.89,163,75L151.65,40.46h8.53l8.94,30.43,9-30.43h8.23Z" transform="translate(-20.06 -20.06)"/><path class="cls-1" d="M190.85,40.46h8V79.89h-8Z" transform="translate(-20.06 -20.06)"/><path class="cls-1" d="M203.4,79.89l11.73-34.33c1.32-3.86,3.45-5.5,6.48-5.5s5.16,1.74,6.43,5.5l11.52,34.33h-8.49l-3-9.76H214.6l-2.94,9.76ZM226.18,64,221.27,48,216.45,64Z" transform="translate(-20.06 -20.06)"/><path class="cls-1" d="M116.61,107.08a17.23,17.23,0,0,1-3.61.38c-4.93,0-6.14-2.39-6.14-7.84s1.21-7.84,6.14-7.84a16.58,16.58,0,0,1,3.61.38l-.19,1.67a18.11,18.11,0,0,0-2.8-.25c-4.38,0-4.6,2.32-4.6,6s.26,6,4.6,6a18.23,18.23,0,0,0,2.8-.24Z" transform="translate(-20.06 -20.06)"/><path class="cls-1" d="M118.91,99.62c0-5.56,1.31-7.84,5.93-7.84s5.92,2.28,5.92,7.84-1.31,7.84-5.92,7.84S118.91,105.18,118.91,99.62Zm9.7,0c0-3.57-.13-6.06-3.77-6.06s-3.77,2.49-3.77,6.06.11,6.06,3.77,6.06S128.61,103.19,128.61,99.62Z" transform="translate(-20.06 -20.06)"/><path class="cls-1" d="M133.79,99.62c0-5.56,1.31-7.84,5.93-7.84s5.92,2.28,5.92,7.84-1.31,7.84-5.92,7.84S133.79,105.18,133.79,99.62Zm9.7,0c0-3.57-.13-6.06-3.77-6.06S136,96.05,136,99.62s.11,6.06,3.77,6.06S143.49,103.19,143.49,99.62Z" transform="translate(-20.06 -20.06)"/><path class="cls-1" d="M151.15,107.3H149V92.17a28.66,28.66,0,0,1,4.72-.39c3.28,0,6,.67,6,4.7s-2.38,4.8-5.77,4.8c-.8,0-2.06,0-2.79-.09Zm0-7.84a22.35,22.35,0,0,0,2.61.12c2.46,0,3.85-.62,3.85-3.1,0-2.14-1-3-3.77-3a21.93,21.93,0,0,0-2.69.18Z" transform="translate(-20.06 -20.06)"/><path class="cls-1" d="M171.33,93.66h-3.91c-2.48,0-2.89.47-2.89,2.67v2.3H171v1.7h-6.5v2.59c0,2.2.41,2.67,2.89,2.67h3.91v1.66c-1.15,0-2.73.09-3.84.09-2.63,0-5.07-.14-5.07-3.5V95.41c0-3.36,2.44-3.51,5.07-3.51,1,0,2.67,0,3.84.1Z" transform="translate(-20.06 -20.06)"/><path class="cls-1" d="M174.58,107.3V92.17a28.66,28.66,0,0,1,4.72-.39c3.26,0,5.95.64,5.95,4.64,0,2.91-1.36,4.12-3.45,4.54l3.63,6.34H183l-3.38-6.14h-.11c-.8,0-2.05-.06-2.77-.1v6.24Zm2.12-8a20.2,20.2,0,0,0,2.6.12c2.44,0,3.85-.61,3.85-3,0-2.13-1-3-3.77-3a20,20,0,0,0-2.68.19Z" transform="translate(-20.06 -20.06)"/><path class="cls-1" d="M187.25,107.3l4.94-14a1.79,1.79,0,0,1,3.53,0l4.87,14h-2.25L196.91,103h-6.06l-1.42,4.26Zm9.1-5.92L193.87,94l-2.47,7.41Z" transform="translate(-20.06 -20.06)"/><path class="cls-1" d="M211.92,93.68h-4V107.3h-2.12V93.68h-4V91.94h10.14Z" transform="translate(-20.06 -20.06)"/><path class="cls-1" d="M214.36,91.94h2.13V107.3h-2.13Z" transform="translate(-20.06 -20.06)"/><path class="cls-1" d="M227,106c-.36,1-.88,1.48-1.66,1.48S224,107,223.65,106l-4.68-14h2.26l4.11,13,4.16-13h2.16Z" transform="translate(-20.06 -20.06)"/><path class="cls-1" d="M232.9,107.3l4.94-14a1.79,1.79,0,0,1,3.53,0l4.87,14H244L242.56,103H236.5l-1.42,4.26Zm9.1-5.92L239.52,94l-2.47,7.41Z" transform="translate(-20.06 -20.06)"/><path class="cls-1" d="M253.57,107.3l4.94-14a1.79,1.79,0,0,1,3.53,0l4.87,14h-2.25L263.23,103h-6.06l-1.42,4.26Zm9.1-5.92L260.19,94l-2.47,7.41Z" transform="translate(-20.06 -20.06)"/><path class="cls-1" d="M269.42,91.94h2.13V107.3h-2.13Z" transform="translate(-20.06 -20.06)"/><path class="cls-1" d="M283.93,107.26c-1.17,0-2.56.08-3.58.08-2.62,0-5.07-.14-5.07-3.5V91.94h2.12v11c0,2.19.41,2.67,2.89,2.67h3.64Z" transform="translate(-20.06 -20.06)"/><path class="cls-1" d="M285.77,99.62c0-5.56,1.31-7.84,5.93-7.84s5.92,2.28,5.92,7.84-1.31,7.84-5.92,7.84S285.77,105.18,285.77,99.62Zm9.7,0c0-3.57-.13-6.06-3.77-6.06s-3.77,2.49-3.77,6.06.11,6.06,3.77,6.06S295.47,103.19,295.47,99.62Z" transform="translate(-20.06 -20.06)"/><path class="cls-1" d="M302.4,95.68c0,1.93,1,2.21,3.27,2.85,2.59.74,4.17,1.76,4.17,4.52,0,3.23-1.95,4.41-5.45,4.41a18.89,18.89,0,0,1-4-.4l.21-1.72a28.55,28.55,0,0,0,3.76.3c2,0,3.33-.44,3.33-2.51,0-1.82-1.32-2.24-3.09-2.78-2.7-.83-4.28-1.57-4.28-4.38,0-3.16,1.88-4.19,5.25-4.19a21.91,21.91,0,0,1,4,.39l-.19,1.68a21.82,21.82,0,0,0-3.11-.27C304.44,93.58,302.4,93.75,302.4,95.68Z" transform="translate(-20.06 -20.06)"/></svg>